<?xml version="1.0" encoding="UTF-8" standalone="no"?>
<svg
   xmlns:osb="http://www.openswatchbook.org/uri/2009/osb"
   xmlns:dc="http://purl.org/dc/elements/1.1/"
   xmlns:cc="http://creativecommons.org/ns#"
   xmlns:rdf="http://www.w3.org/1999/02/22-rdf-syntax-ns#"
   xmlns:svg="http://www.w3.org/2000/svg"
   xmlns="http://www.w3.org/2000/svg"
   xmlns:xlink="http://www.w3.org/1999/xlink"
   xmlns:sodipodi="http://sodipodi.sourceforge.net/DTD/sodipodi-0.dtd"
   xmlns:inkscape="http://www.inkscape.org/namespaces/inkscape"
   width="115.80244mm"
   height="101.25619mm"
   viewBox="0 0 115.80244 101.25619"
   version="1.1"
   id="svg1849"
   inkscape:version="1.0.2 (e86c870879, 2021-01-15)"
   sodipodi:docname="logo_inkscape.svg">
  <defs
     id="defs1843">
    <linearGradient
       inkscape:collect="always"
       xlink:href="#linearGradient1795"
       id="linearGradient1801"
       gradientUnits="userSpaceOnUse"
       x1="418.00992"
       y1="404.26425"
       x2="595.05804"
       y2="247.31757"
       gradientTransform="matrix(0.26458333,0,0,0.26458333,-23.427203,40.953571)" />
    <linearGradient
       id="linearGradient1795"
       osb:paint="gradient">
      <stop
         style="stop-color:#ff0000;stop-opacity:1"
         offset="0"
         id="stop1791" />
      <stop
         style="stop-color:#000000;stop-opacity:1"
         offset="1"
         id="stop1793" />
    </linearGradient>
  </defs>
  <sodipodi:namedview
     id="base"
     pagecolor="#ffffff"
     bordercolor="#666666"
     borderopacity="1.0"
     inkscape:pageopacity="0.0"
     inkscape:pageshadow="2"
     inkscape:zoom="1.42"
     inkscape:cx="195.45383"
     inkscape:cy="234.30644"
     inkscape:document-units="mm"
     inkscape:current-layer="layer1"
     inkscape:document-rotation="0"
     showgrid="false"
     fit-margin-top="0"
     fit-margin-left="0"
     fit-margin-right="0"
     fit-margin-bottom="0"
     inkscape:window-width="3840"
     inkscape:window-height="2091"
     inkscape:window-x="1920"
     inkscape:window-y="33"
     inkscape:window-maximized="1" />
  <metadata
     id="metadata1846">
    <rdf:RDF>
      <cc:Work
         rdf:about="">
        <dc:format>image/svg+xml</dc:format>
        <dc:type
           rdf:resource="http://purl.org/dc/dcmitype/StillImage" />
        <dc:title></dc:title>
      </cc:Work>
    </rdf:RDF>
  </metadata>
  <g
     inkscape:label="Layer 1"
     inkscape:groupmode="layer"
     id="layer1"
     transform="translate(-54.119508,-86.173087)">
    <path
       id="path1517"
       style="mix-blend-mode:normal;fill:url(#linearGradient1801);fill-opacity:1;fill-rule:evenodd;stroke:#000000;stroke-width:0.264583px;stroke-linecap:butt;stroke-linejoin:miter;stroke-opacity:1"
       d="m 72.583567,149.7835 c 1.38502,-1.25147 3.72663,-1.14503 5.09325,0.0879 -1.21576,1.56999 -3.90003,1.42139 -5.09325,-0.0879 z m -18.31948,6.71992 c 0.20883,-3.13901 2.11327,-6.11038 5.21592,-7.02212 4.62079,-2.04478 9.99753,-0.68788 14.50809,-3.06261 5.88663,-2.02317 12.21081,-1.72168 18.29479,-0.90415 5.412167,1.17467 10.826443,2.67349 16.278893,3.63918 1.79272,0.59687 -2.84611,0.83497 -4.43322,0.91682 -3.26923,0.22934 -3.27181,0.23083 -0.063,2.29315 3.88954,2.2198 8.80731,1.62923 13.25184,1.32039 6.40661,-1.06781 12.56639,-3.8385 17.51352,-8.06323 3.98522,-3.6668 7.89549,-7.71023 9.76662,-12.89966 2.40996,-5.86037 3.17874,-12.5679 1.49989,-18.72385 -0.68261,-2.67473 -1.52962,-5.30602 -2.22849,-7.97935 3.8244,6.32782 6.59806,13.64864 6.0371,21.15337 0.4542,8.37089 -3.51449,16.36605 -8.6964,22.70213 -5.98573,6.3523 -13.70555,11.20389 -22.35018,12.85304 -4.72005,1.24839 -9.63396,1.0714 -14.46794,0.94364 1.7818,1.59174 4.57166,2.45641 6.94334,3.24233 6.53879,1.55843 13.52999,0.84255 19.83349,-1.30508 6.68384,-2.41129 12.94541,-6.39252 16.96466,-12.37314 -3.21288,10.62452 -12.82332,18.70819 -23.61273,20.87221 -7.15245,1.82711 -14.69785,1.12221 -21.68386,-0.98591 -1.37578,-0.1557 -5.855526,-2.34787 -4.675296,-1.02669 2.569966,3.08806 6.542886,4.54531 10.096926,6.20508 -6.26803,0.31089 -12.291356,-2.60171 -17.283603,-6.16978 -2.625,-1.76301 -4.76879,-4.1199 -7.19254,-6.12999 4.65186,7.7312 12.995587,12.6248 21.645333,14.5469 3.63933,0.81923 7.33572,1.08608 11.06334,0.88552 8.96055,0.34252 17.69042,-2.90942 25.23918,-7.51615 6.25939,-4.04797 11.84709,-9.31474 15.45206,-15.90456 3.62004,-5.65775 5.35609,-12.2339 6.232,-18.82726 0.35207,-3.4353 0.29301,-6.98528 0.0223,-10.43189 -1.24102,-9.97372 -5.2993,-19.67276 -12.26597,-27.00593 -6.35634,-7.286293 -15.28359,-12.335088 -24.8759,-13.761956 -4.73816,-0.895716 -9.59297,-0.693576 -14.3749,-1.218721 10.8797,-1.180145 22.47618,-0.318747 32.10691,5.319601 16.07344,8.348316 26.26812,26.361356 25.7187,44.388886 0.45929,9.34541 -2.66503,18.62134 -7.42187,26.56982 -7.65881,12.50461 -21.02215,21.16449 -35.43769,23.5628 -9.76899,1.80902 -20.01841,-0.0421 -28.911476,-4.31208 -5.758467,-2.94803 -11.098567,-6.71353 -15.407197,-11.57248 -2.34074,-3.38872 -6.08662,-5.13563 -9.48515,-7.22132 -4.50585,-3.02517 -8.97046,-6.66139 -14.39717,-7.69477 -1.62249,-0.32187 -3.29704,0.36815 -4.42032,0.69781 z"
       sodipodi:nodetypes="cccscccccccccccccccccccccccccccccccccccccccccss" />
  </g>
</svg>
